<svg width="99" height="53" viewBox="0 0 99 53" fill="none" xmlns="http://www.w3.org/2000/svg">
<g clip-path="url(#clip0_668_422)">
<path d="M10.7682 52.2135L10.5191 50.0812H10.4132C9.4603 51.4101 7.6355 52.5967 5.20659 52.5967C1.75629 52.5967 0 50.1863 0 47.7388C0 43.6534 3.66205 41.416 10.245 41.4531V41.1008C10.245 39.704 9.85889 37.1885 6.37122 37.1885C4.78932 37.1885 3.13267 37.6768 1.9369 38.4432L1.23314 36.4159C2.64066 35.5074 4.68344 34.9141 6.8321 34.9141C12.0387 34.9141 13.3092 38.4432 13.3092 41.8301V48.1529C13.3092 49.6177 13.3777 51.0516 13.5895 52.2074H10.7744L10.7682 52.2135ZM10.3135 43.5854C6.93174 43.5174 3.09531 44.1108 3.09531 47.3927C3.09531 49.3828 4.43432 50.3285 6.01623 50.3285C8.23339 50.3285 9.64091 48.9316 10.1329 47.4977C10.2388 47.1825 10.3073 46.8364 10.3073 46.5212V43.5854H10.3135Z" fill="#F8F8F8"/>
<path d="M18.3041 27.417H21.3994V52.2197H18.3041V27.417Z" fill="#F8F8F8"/>
<path d="M30.0625 30.5567C30.0999 31.6074 29.3214 32.4418 28.0882 32.4418C26.9983 32.4418 26.2198 31.6012 26.2198 30.5567C26.2198 29.5122 27.0295 28.6345 28.1568 28.6345C29.284 28.6345 30.0563 29.4751 30.0563 30.5567H30.0625ZM26.6122 52.2135V35.3096H29.7075V52.2135H26.6122Z" fill="#F8F8F8"/>
<path d="M34.8455 39.8833C34.8455 38.1342 34.8081 36.7065 34.7023 35.3097H37.4488L37.6232 38.1033H37.6917C38.5387 36.4964 40.5067 34.9265 43.3218 34.9265C45.6822 34.9265 49.3443 36.3233 49.3443 42.1207V52.2136H46.2489V42.4668C46.2489 39.7412 45.2276 37.4729 42.3066 37.4729C40.2639 37.4729 38.6819 38.9068 38.1526 40.6188C38.0093 41.002 37.9408 41.5274 37.9408 42.0527V52.2198H34.8455V39.8895V39.8833Z" fill="#F8F8F8"/>
<path d="M56.1078 44.3209C56.1763 48.4805 58.8544 50.1925 61.9497 50.1925C64.1668 50.1925 65.5059 49.8093 66.6643 49.321L67.1936 51.5213C66.1037 52.0096 64.2353 52.572 61.5262 52.572C56.2822 52.572 53.1495 49.148 53.1495 44.049C53.1495 38.95 56.1763 34.9326 61.14 34.9326C66.7016 34.9326 68.1777 39.7906 68.1777 42.8994C68.1777 43.5298 68.1092 44.0181 68.0718 44.3333H56.1016L56.1078 44.3209ZM65.1882 42.1206C65.2256 40.1614 64.3786 37.1267 60.8971 37.1267C57.7645 37.1267 56.3943 39.9883 56.1452 42.1206H65.1882Z" fill="#F8F8F8"/>
<path d="M81.4496 52.2135L81.2005 50.0812H81.0946C80.1417 51.4101 78.3107 52.5967 75.8818 52.5967C72.4315 52.5967 70.6752 50.1863 70.6752 47.7388C70.6752 43.6534 74.3372 41.416 80.9202 41.4531V41.1008C80.9202 39.704 80.5341 37.1885 77.0464 37.1885C75.4645 37.1885 73.8078 37.6768 72.6121 38.4432L71.9083 36.4159C73.3158 35.5074 75.3586 34.9141 77.5073 34.9141C82.7201 34.9141 83.9844 38.4432 83.9844 41.8301V48.1529C83.9844 49.6177 84.0529 51.0516 84.2646 52.2074H81.4496V52.2135ZM80.9949 43.5854C77.6131 43.5174 73.7767 44.1108 73.7767 47.3927C73.7767 49.3828 75.1157 50.3285 76.6976 50.3285C78.9148 50.3285 80.3223 48.9316 80.8143 47.4977C80.9202 47.1825 80.9887 46.8364 80.9887 46.5212V43.5854H80.9949Z" fill="#F8F8F8"/>
<path d="M88.9853 40.5818C88.9853 38.5916 88.9479 36.8796 88.842 35.3097H91.5512L91.6571 38.6287H91.8003C92.5726 36.3604 94.441 34.9265 96.5149 34.9265C96.8699 34.9265 97.1128 34.9636 97.3931 35.0316V37.9303C97.0754 37.8623 96.7578 37.8252 96.3343 37.8252C94.1545 37.8252 92.6037 39.4692 92.1802 41.7746C92.1117 42.1949 92.037 42.6832 92.037 43.2085V52.2198H88.9728V40.5879L88.9853 40.5818Z" fill="#F8F8F8"/>
<path d="M52.5703 19.5491C59.882 24.5553 77.7251 23.3192 80.5589 19.5491" stroke="#FFBD35" stroke-width="3" stroke-linecap="round" stroke-linejoin="round"/>
<path d="M34.9701 20.1858C43.3654 25.9399 54.227 20.6988 54.6131 20.1858" stroke="#FFBD35" stroke-width="3" stroke-linecap="round" stroke-linejoin="round"/>
<path d="M97.7544 19.8643C89.3591 25.6184 78.4975 20.3772 78.1113 19.8643" stroke="#FFBD35" stroke-width="3" stroke-linecap="round" stroke-linejoin="round"/>
<path d="M45.3708 10.4019C45.4082 8.97415 45.8753 7.73803 46.9901 6.82948C48.5409 5.56246 50.7082 5.62427 52.2652 6.95927C52.7447 7.36719 53.1433 7.84928 53.4796 8.38699C53.5232 8.46116 53.5668 8.52914 53.6104 8.60331C53.8907 9.04213 54.364 9.04213 54.6318 8.59713C54.993 7.99143 55.4041 7.43518 55.9459 6.99018C57.2164 5.94566 58.6364 5.60572 60.181 6.2176C61.7193 6.82948 62.5538 8.05324 62.8154 9.70345C63.0396 11.1312 62.585 12.3858 61.8563 13.5601C60.9968 14.9384 59.882 16.088 58.68 17.1572C57.5029 18.2079 56.2386 19.1474 54.9308 20.025C54.3889 20.3897 53.8471 20.3897 53.3053 20.025C51.3061 18.6839 49.4128 17.2129 47.7873 15.402C46.9403 14.4625 46.1929 13.4489 45.7196 12.2437C45.4891 11.6565 45.3584 11.0508 45.3708 10.4142V10.4019Z" stroke="#FFBD35" stroke-width="3" stroke-linecap="round" stroke-linejoin="round"/>
<path d="M70.3202 10.4019C70.3575 8.97415 70.8246 7.73803 71.9394 6.82948C73.4902 5.56246 75.6575 5.62427 77.2145 6.95927C77.6941 7.36719 78.0927 7.84928 78.429 8.38699C78.4726 8.46116 78.5162 8.52914 78.5598 8.60331C78.84 9.04213 79.3134 9.04213 79.5812 8.59713C79.9424 7.99143 80.3534 7.43518 80.8953 6.99018C82.1658 5.94566 83.5858 5.60572 85.1303 6.2176C86.6686 6.82948 87.5031 8.05324 87.7647 9.70345C87.9889 11.1312 87.5343 12.3858 86.8056 13.5601C85.9462 14.9384 84.8313 16.088 83.6293 17.1572C82.4523 18.2079 81.188 19.1474 79.8801 20.025C79.3383 20.3897 78.7964 20.3897 78.2546 20.025C76.2554 18.6839 74.3621 17.2129 72.7366 15.402C71.8896 14.4625 71.1422 13.4489 70.6689 12.2437C70.4385 11.6565 70.3077 11.0508 70.3202 10.4142V10.4019Z" stroke="#FFBD35" stroke-width="3" stroke-linecap="round" stroke-linejoin="round"/>
</g>
<defs>
<clipPath id="clip0_668_422">
<rect width="99" height="52.603" fill="white"/>
</clipPath>
</defs>
</svg>
