<svg width="31" height="26" viewBox="0 0 31 26" fill="none" xmlns="http://www.w3.org/2000/svg">
<path d="M0 14.0377C0.110844 13.449 0.266025 12.8755 0.53205 12.3324C1.00203 11.3767 1.68704 10.6098 2.59153 10.0277C3.64011 9.35211 4.79732 9.09143 6.03876 9.10447C7.20927 9.11533 8.37978 9.10447 9.55029 9.10881C9.97372 9.10881 9.97372 9.11533 10.0203 9.52806C10.1555 10.7402 10.6454 11.7916 11.4923 12.6844C11.7029 12.9059 11.7007 12.919 11.4058 13.0211C9.96263 13.5207 8.81429 14.3896 7.96079 15.6321C7.20484 16.7356 6.84792 17.9564 6.82797 19.2793C6.82354 19.6465 6.82797 20.0114 6.82797 20.3785C6.82797 20.6826 6.81467 20.7043 6.51539 20.6783C5.52002 20.5936 4.52907 20.4763 3.547 20.296C2.43634 20.0918 1.34786 19.7985 0.263808 19.4901C0.179567 19.4662 0.088675 19.4553 0.00221688 19.4379V14.0355L0 14.0377Z" fill="white"/>
<path d="M15.7796 13.6484C16.3272 13.6701 17.1829 13.6028 18.0342 13.681C18.9365 13.7635 19.7589 14.0589 20.5127 14.5412C21.8184 15.3753 22.6497 16.5418 23.0133 18.0255C23.1264 18.4904 23.1663 18.9704 23.1685 19.4483C23.1774 20.8103 23.1685 22.1723 23.1751 23.5343C23.1751 23.7646 23.1042 23.8928 22.8847 23.9905C22.1133 24.3381 21.3085 24.577 20.4861 24.7747C18.8234 25.1744 17.1364 25.2982 15.4338 25.27C13.913 25.2461 12.4078 25.0462 10.918 24.74C9.95592 24.5423 9.0071 24.2925 8.06936 24.0057C7.86762 23.9449 7.80555 23.8363 7.80555 23.643C7.80998 22.2419 7.79447 20.8386 7.8122 19.4375C7.83215 17.78 8.39524 16.3311 9.64334 15.182C10.6698 14.2349 11.8935 13.7114 13.3056 13.6549C14.0283 13.6267 14.7532 13.6506 15.7796 13.6506V13.6484Z" fill="white"/>
<path d="M30.5596 16.6917C30.5596 17.4802 30.5529 18.2688 30.564 19.0573C30.5685 19.2767 30.482 19.381 30.2847 19.4679C28.8548 20.0978 27.3496 20.428 25.8 20.6061C25.3632 20.6561 24.9265 20.6713 24.492 20.7256C24.2038 20.7604 24.1595 20.7126 24.1506 20.4171C24.1351 19.7568 24.1816 19.0964 24.1018 18.4382C23.9843 17.4889 23.6562 16.6157 23.1419 15.8098C22.3217 14.5238 21.1889 13.6093 19.7346 13.0836C19.4464 12.9793 19.4043 12.812 19.6082 12.5818C20.4285 11.6477 20.9184 10.579 20.9783 9.3386C20.9849 9.19957 21.027 9.11051 21.1911 9.11268C22.5877 9.12789 23.991 9.02796 25.3832 9.15613C27.7863 9.3777 29.6817 10.9656 30.3556 13.2313C30.4975 13.7092 30.5662 14.1936 30.564 14.6911C30.5596 15.3601 30.564 16.0292 30.564 16.6982L30.5596 16.6917Z" fill="white"/>
<path d="M15.5159 4.56447C18.001 4.56881 20.025 6.55426 20.0051 8.99806C19.9851 11.4853 17.9899 13.4164 15.4804 13.4012C12.9199 13.3839 10.9913 11.4332 10.9868 8.9872C10.9802 6.5043 13.0153 4.55795 15.5159 4.56447Z" fill="white"/>
<path d="M7.62838 8.87611C5.70635 8.80877 4.05921 7.75305 3.43405 6.01741C2.78229 4.20792 3.13921 2.5722 4.56244 1.22757C5.53122 0.313051 6.71946 -0.0714395 8.06732 0.0588962C10.0248 0.247883 11.6099 1.61858 12.0355 3.47804C12.1109 3.80605 12.1153 4.14058 12.1375 4.47293C12.1486 4.62716 12.0887 4.76184 11.9557 4.87046C10.9626 5.67854 10.3485 6.71036 10.1002 7.94855C10.0692 8.10278 9.99378 8.20271 9.85412 8.28091C9.14029 8.68929 8.36216 8.84787 7.62395 8.87611H7.62838Z" fill="white"/>
<path d="M22.8515 8.8806C22.3261 8.83716 21.752 8.75896 21.2044 8.53304C21.0426 8.4657 20.9627 8.36361 20.9384 8.20069C20.7455 6.86475 20.0959 5.77644 19.0695 4.89016C18.9365 4.77503 18.7946 4.66424 18.6439 4.57084C18.4821 4.47091 18.4111 4.35361 18.4244 4.16028C18.5353 2.56149 19.3156 1.35154 20.73 0.591252C22.3461 -0.277653 23.9777 -0.184246 25.4963 0.841062C26.6712 1.63394 27.3141 2.76134 27.3895 4.17983C27.4737 5.76341 26.8641 7.03635 25.5938 7.99867C24.809 8.59169 23.8957 8.84368 22.8515 8.8806Z" fill="white"/>
</svg>
