<svg width="28" height="29" viewBox="0 0 28 29" fill="none" xmlns="http://www.w3.org/2000/svg">
<g clip-path="url(#clip0_619_120)">
<path d="M27.3434 21.8469V24.2021C27.2509 24.2578 27.2293 24.3575 27.204 24.4508C27.0608 24.9768 26.8377 25.4652 26.5171 25.8991C25.4285 27.3747 23.9837 28.1494 22.1676 28.0121C19.5417 27.8126 17.6179 25.4703 17.6534 23.018C17.6572 22.7861 17.5647 22.6618 17.367 22.5672C16.7688 22.2783 16.1757 21.9777 15.5813 21.6785C13.2152 20.4866 10.844 19.3039 8.48807 18.0913C8.08253 17.8827 7.79611 17.8802 7.40197 18.1418C4.50106 20.076 0.967742 18.4022 0.155384 15.3617C0.132572 15.2762 0.114829 15.1895 0.0362549 15.1337V12.7786C0.14778 12.7086 0.156651 12.583 0.189602 12.4728C0.273245 12.1904 0.375899 11.9158 0.525444 11.6619C1.80038 9.49195 3.54042 8.83903 5.75444 9.13569C6.48189 9.23285 7.10035 9.57615 7.67952 10.0101C7.83286 10.1254 7.9558 10.1449 8.14716 10.0542C8.96712 9.66813 9.76808 9.24581 10.5766 8.83773C12.8236 7.70549 15.0706 6.57454 17.3201 5.45007C17.5558 5.33218 17.6813 5.18838 17.6547 4.90726C17.6382 4.73367 17.6483 4.5523 17.6787 4.38C18.0539 2.25413 19.1894 0.796717 21.2513 0.161934C21.3692 0.125661 21.501 0.116593 21.5796 0H23.3653C23.4375 0.114002 23.563 0.111411 23.6719 0.138616C25.469 0.601101 26.6362 1.74241 27.1926 3.54572C27.2293 3.6636 27.2243 3.80352 27.3409 3.88643V6.12371C27.2433 6.18978 27.2243 6.2999 27.1951 6.40224C26.2902 9.55154 22.4211 11.031 19.7876 9.0191C19.5468 8.83514 19.3478 8.82996 19.0791 8.9634C16.0388 10.4687 13.02 12.0194 9.99746 13.5623C9.79849 13.6634 9.72118 13.7865 9.71612 14.0145C9.70978 14.293 9.87707 14.3837 10.0722 14.4834C13.053 16.0017 16.0363 17.5161 19.0094 19.05C19.3225 19.2119 19.5227 19.1821 19.8041 18.9787C21.2982 17.897 22.9268 17.8076 24.5629 18.5292C25.8429 19.094 26.7021 20.1278 27.1533 21.4932C27.1951 21.6202 27.2065 21.7679 27.3396 21.8456L27.3434 21.8469Z" fill="#FFBD35"/>
</g>
<defs>
<clipPath id="clip0_619_120">
<rect width="27.3046" height="28.0263" fill="white" transform="translate(0.0386963)"/>
</clipPath>
</defs>
</svg>
