<svg width="29" height="29" viewBox="0 0 29 29" fill="none" xmlns="http://www.w3.org/2000/svg">
<path d="M28.1889 21.8469V24.2021C28.0963 24.2578 28.0748 24.3575 28.0495 24.4508C27.9062 24.9768 27.6832 25.4652 27.3626 25.8991C26.2739 27.3747 24.8292 28.1494 23.0131 28.0121C20.3872 27.8126 18.4634 25.4703 18.4989 23.018C18.5027 22.7861 18.4101 22.6618 18.2124 22.5672C17.6143 22.2783 17.0212 21.9777 16.4268 21.6785C14.0607 20.4866 11.6895 19.3039 9.33353 18.0913C8.92799 17.8827 8.64157 17.8802 8.24743 18.1418C5.34652 20.076 1.8132 18.4022 1.00084 15.3617C0.978031 15.2762 0.960288 15.1895 0.881714 15.1337V12.7786C0.993239 12.7086 1.00211 12.583 1.03506 12.4728C1.1187 12.1904 1.22136 11.9158 1.3709 11.6619C2.64584 9.49195 4.38588 8.83903 6.5999 9.13569C7.32735 9.23285 7.94581 9.57615 8.52498 10.0101C8.67832 10.1254 8.80125 10.1449 8.99262 10.0542C9.81258 9.66813 10.6135 9.24581 11.4221 8.83773C13.6691 7.70549 15.916 6.57454 18.1656 5.45007C18.4013 5.33218 18.5267 5.18838 18.5001 4.90726C18.4837 4.73367 18.4938 4.5523 18.5242 4.38C18.8993 2.25413 20.0349 0.796717 22.0968 0.161934C22.2147 0.125661 22.3465 0.116593 22.425 0H24.2107C24.2829 0.114002 24.4084 0.111411 24.5174 0.138616C26.3145 0.601101 27.4817 1.74241 28.038 3.54572C28.0748 3.6636 28.0697 3.80352 28.1863 3.88643V6.12371C28.0887 6.18978 28.0697 6.2999 28.0406 6.40224C27.1357 9.55154 23.2666 11.031 20.633 9.0191C20.3923 8.83514 20.1933 8.82996 19.9246 8.9634C16.8843 10.4687 13.8655 12.0194 10.8429 13.5623C10.644 13.6634 10.5666 13.7865 10.5616 14.0145C10.5552 14.293 10.7225 14.3837 10.9177 14.4834C13.8985 16.0017 16.8817 17.5161 19.8549 19.05C20.1679 19.2119 20.3682 19.1821 20.6495 18.9787C22.1437 17.897 23.7722 17.8076 25.4083 18.5292C26.6883 19.094 27.5476 20.1278 27.9988 21.4932C28.0406 21.6202 28.052 21.7679 28.1851 21.8456L28.1889 21.8469Z" fill="#FFBD35"/>
</svg>
