<svg width="30" height="29" viewBox="0 0 30 29" fill="none" xmlns="http://www.w3.org/2000/svg">
<path d="M29.2965 8.54309C29.3062 10.771 28.5633 12.7647 27.4684 14.6634C26.5466 16.2614 25.17 17.4557 23.9273 18.767C21.6682 21.1506 19.3829 23.5088 17.1082 25.8776C16.5236 26.487 15.9398 27.0972 15.3495 27.7009C14.929 28.1309 14.5779 28.1367 14.164 27.7067C11.4027 24.8423 8.64465 21.9746 5.88498 19.1078C5.01625 18.2043 4.10425 17.3385 3.28778 16.39C1.63198 14.4676 0.585265 12.2454 0.256228 9.70784C0.0145523 7.84358 0.28562 6.05058 1.13475 4.37635C3.19144 0.324283 7.87961 -1.30736 11.7644 1.1745C12.825 1.8519 13.6937 2.72178 14.4302 3.735C14.7323 4.15028 14.7355 4.14618 15.0352 3.74974C16.1129 2.32206 17.3948 1.14829 19.084 0.482368C21.7996 -0.58819 25.0067 0.211248 26.9638 2.38677C28.5469 4.14618 29.2916 6.19638 29.2956 8.54391L29.2965 8.54309Z" fill="#FFBD35"/>
</svg>
