<svg width="30" height="29" viewBox="0 0 30 29" fill="none" xmlns="http://www.w3.org/2000/svg">
<path d="M29.1419 8.54309C29.1517 10.771 28.4087 12.7647 27.3138 14.6634C26.392 16.2614 25.0155 17.4557 23.7728 18.767C21.5136 21.1506 19.2283 23.5088 16.9536 25.8776C16.369 26.487 15.7853 27.0972 15.195 27.7009C14.7745 28.1309 14.4234 28.1367 14.0094 27.7067C11.2481 24.8423 8.4901 21.9746 5.73043 19.1078C4.86171 18.2043 3.94971 17.3385 3.13324 16.39C1.47744 14.4676 0.430724 12.2454 0.101687 9.70784C-0.139989 7.84358 0.131079 6.05058 0.980209 4.37635C3.0369 0.324283 7.72507 -1.30736 11.6098 1.1745C12.6704 1.8519 13.5392 2.72178 14.2756 3.735C14.5777 4.15028 14.581 4.14618 14.8806 3.74974C15.9584 2.32206 17.2402 1.14829 18.9295 0.482368C21.6451 -0.58819 24.8522 0.211248 26.8093 2.38677C28.3924 4.14618 29.137 6.19638 29.1411 8.54391L29.1419 8.54309Z" fill="#FFBD35"/>
</svg>
