<svg width="468" height="54" viewBox="0 0 468 54" fill="none" xmlns="http://www.w3.org/2000/svg">
<g clip-path="url(#clip0_471_47)">
<path d="M397.516 13.4664C397.616 9.11075 398.822 5.3469 401.675 2.57727C405.653 -1.28128 411.219 -1.0919 415.218 2.95602C416.443 4.21064 417.468 5.67831 418.332 7.31168C418.453 7.52473 418.553 7.76145 418.674 7.9745C419.397 9.30013 420.603 9.30013 421.306 7.95082C422.23 6.1044 423.295 4.40002 424.681 3.05071C427.957 -0.145019 431.593 -1.18659 435.552 0.683502C439.51 2.55359 441.64 6.27011 442.323 11.3123C442.906 15.6679 441.74 19.4791 439.852 23.0773C437.641 27.2909 434.768 30.7944 431.694 34.0611C428.66 37.2568 425.425 40.1448 422.069 42.7961C420.663 43.9087 419.297 43.9087 417.89 42.7961C412.766 38.7008 407.884 34.2031 403.725 28.6875C401.555 25.8232 399.626 22.7222 398.42 19.053C397.837 17.2776 397.496 15.4075 397.516 13.4664V13.4664Z" fill="#FFBD35" stroke="#FFBD35" stroke-width="4" stroke-miterlimit="10"/>
<path d="M45.2275 43.5765C64.0144 58.845 416.544 52.8559 423.817 41.375" stroke="#FFBD35" stroke-width="4" stroke-linecap="round" stroke-linejoin="round"/>
<path d="M0.0185547 45.5176C21.5782 63.0586 49.4872 47.0799 50.4717 45.5176" stroke="#FFBD35" stroke-width="4" stroke-linecap="round" stroke-linejoin="round"/>
<path d="M467.981 42.3223C446.422 59.8633 418.513 43.8846 417.528 42.3223" stroke="#FFBD35" stroke-width="4" stroke-linecap="round" stroke-linejoin="round"/>
<path d="M26.722 15.691C26.8224 11.3354 28.028 7.57151 30.8812 4.80188C34.8596 0.943331 40.4253 1.13271 44.4238 5.18063C45.6495 6.43525 46.6742 7.90292 47.5382 9.53629C47.6587 9.74934 47.7592 9.98606 47.8798 10.1991C48.6031 11.5247 49.8087 11.5247 50.5119 10.1754C51.4362 8.32901 52.5011 6.62462 53.8875 5.27532C57.1627 2.07959 60.7995 1.03802 64.7578 2.90811C68.7161 4.7782 70.8459 8.49472 71.5291 13.5369C72.1118 17.8925 70.9464 21.7037 69.0576 25.3019C66.8474 29.5155 63.9741 33.019 60.8999 36.2857C57.8659 39.4814 54.631 42.3694 51.2755 45.0207C49.869 46.1333 48.5026 46.1333 47.0961 45.0207C41.9725 40.9254 37.0899 36.4277 32.9307 30.9122C30.7606 28.0478 28.8317 24.9468 27.6261 21.2776C27.0435 19.5022 26.7019 17.6321 26.722 15.691V15.691Z" fill="#FFBD35" stroke="#FFBD35" stroke-width="4" stroke-miterlimit="10"/>
</g>
<defs>
<clipPath id="clip0_471_47">
<rect width="468" height="54" fill="white"/>
</clipPath>
</defs>
</svg>
