<svg width="26" height="27" viewBox="0 0 26 27" fill="none" xmlns="http://www.w3.org/2000/svg">
<path d="M25.0482 10.9024C25.2088 11.7702 25.2963 12.6775 25.2963 13.6243C25.2963 21.0302 20.3827 26.2963 12.9615 26.2963C11.2738 26.2968 9.60256 25.9619 8.04325 25.3106C6.48393 24.6593 5.06711 23.7045 3.87373 22.5007C2.68036 21.2969 1.73383 19.8676 1.08822 18.2946C0.442604 16.7217 0.11057 15.0358 0.111085 13.3333C0.11057 11.6309 0.442604 9.94497 1.08822 8.372C1.73383 6.79903 2.68036 5.36979 3.87373 4.16597C5.06711 2.96214 6.48393 2.00732 8.04325 1.35605C9.60256 0.704785 11.2738 0.369843 12.9615 0.370362C16.4313 0.370362 19.3306 1.65823 21.555 3.74937L17.9325 7.4036V7.39438C16.584 6.09861 14.8726 5.43361 12.9615 5.43361C8.72154 5.43361 5.27527 9.04701 5.27527 13.3254C5.27527 17.6025 8.72154 21.2238 12.9615 21.2238C16.8085 21.2238 19.4272 19.0049 19.965 15.9578H12.9615V10.9024H25.0495H25.0482Z" fill="#1E1E1E"/>
</svg>
