<svg width="127" height="148" viewBox="0 0 127 148" fill="none" xmlns="http://www.w3.org/2000/svg">
<g clip-path="url(#clip0_471_127)">
<path d="M82.2277 140.352C83.4776 137.883 84.9343 135.497 85.9289 132.94C88.1293 127.292 88.8159 121.478 86.743 115.62C84.8595 110.301 81.374 106.597 75.578 105.621C71.6392 104.955 68.0877 106.198 64.831 108.37C64.3337 108.698 63.8628 109.062 63.7484 109.145C60.9846 107.954 58.5861 106.518 55.9852 105.879C49.4675 104.272 43.3679 107.591 40.5205 114.066C37.4135 121.132 38.4741 128.08 41.5151 134.867C42.3557 136.74 43.4911 138.479 44.6133 140.497H42.7429C33.7783 140.497 24.8005 140.256 15.8447 140.563C6.65564 140.878 -0.918289 134.556 -0.0425118 123.518C1.65623 102.101 15.7215 84.728 36.5729 79.1415C40.5601 78.0733 44.8026 77.6092 48.9394 77.5172C58.8898 77.294 68.8534 77.3202 78.8082 77.4997C103.475 77.9463 124.23 97.2583 126.417 121.684C126.611 123.856 126.822 126.088 126.536 128.225C125.594 135.23 120.322 140.212 113.153 140.396C102.93 140.654 92.693 140.475 82.461 140.475C82.373 140.475 82.2849 140.383 82.2321 140.357L82.2277 140.352Z" fill="#F8F8F8"/>
<path d="M63.2598 70.3677C43.8343 70.3283 28.0967 54.6765 28.0879 35.3864C28.0791 16.0394 43.9135 0.308699 63.3742 0.330589C82.813 0.35248 98.6606 16.197 98.5505 35.5002C98.4405 54.8341 82.6765 70.4071 63.2642 70.3634L63.2598 70.3677Z" fill="#F8F8F8"/>
<path d="M63.3215 118.641C64.9278 117.31 66.4109 116.093 67.8808 114.863C73.1443 110.467 78.949 112.393 80.4541 119.07C81.66 124.433 80.3925 129.389 77.6772 134.026C74.4469 139.542 69.9184 143.776 64.3337 146.889C63.8848 147.138 63.1058 147.309 62.7229 147.094C54.6869 142.546 48.6005 136.337 46.2196 127.178C45.4274 124.122 45.4671 120.988 46.5057 117.945C48.4333 112.301 53.5427 110.787 58.256 114.46C59.9416 115.773 61.5523 117.179 63.3215 118.641V118.641Z" fill="#F8F8F8"/>
</g>
<defs>
<clipPath id="clip0_471_127">
<rect width="127" height="148" fill="white"/>
</clipPath>
</defs>
</svg>
