<svg width="26" height="27" viewBox="0 0 26 27" fill="none" xmlns="http://www.w3.org/2000/svg">
<path d="M25.0483 10.9024C25.2088 11.7702 25.2963 12.6775 25.2963 13.6243C25.2963 21.0302 20.3828 26.2963 12.9615 26.2963C11.2738 26.2968 9.60259 25.9619 8.04328 25.3106C6.48396 24.6593 5.06714 23.7045 3.87377 22.5007C2.68039 21.2969 1.73386 19.8676 1.08825 18.2946C0.442635 16.7217 0.110601 15.0358 0.111115 13.3333C0.110601 11.6309 0.442635 9.94497 1.08825 8.372C1.73386 6.79903 2.68039 5.36979 3.87377 4.16597C5.06714 2.96214 6.48396 2.00732 8.04328 1.35605C9.60259 0.704785 11.2738 0.369843 12.9615 0.370362C16.4313 0.370362 19.3306 1.65823 21.555 3.74937L17.9325 7.4036V7.39438C16.584 6.09861 14.8726 5.43361 12.9615 5.43361C8.72157 5.43361 5.2753 9.04701 5.2753 13.3254C5.2753 17.6025 8.72157 21.2238 12.9615 21.2238C16.8086 21.2238 19.4272 19.0049 19.965 15.9578H12.9615V10.9024H25.0496H25.0483Z" fill="#8267BE"/>
</svg>
