<svg width="126" height="147" viewBox="0 0 126 147" fill="none" xmlns="http://www.w3.org/2000/svg">
<path d="M125.612 57.6953C125.425 70.7889 121.692 81.6106 115.932 91.8857C107.378 107.137 95.6921 120.129 82.3933 131.885C76.8165 136.812 70.8211 141.332 64.9653 145.982C63.2386 147.352 62.3796 147.316 60.6137 146.014C42.523 132.737 26.4859 117.649 14.1768 99.3544C7.71928 89.7564 2.71805 79.5507 0.84749 68.2355C-2.09133 50.5039 2.61776 34.6447 14.9006 20.9065C24.8682 9.76259 37.7528 3.19127 53.0574 0.768327C83.4877 -4.04493 114.467 14.2414 122.926 42.0359C123.729 44.675 124.404 47.3672 124.841 50.0756C125.32 53.0411 125.455 56.0514 125.612 57.6912V57.6953ZM15.6637 58.8292C15.6637 83.0627 36.7761 102.875 62.6107 102.879C88.72 102.879 109.828 83.1973 109.872 58.7966C109.915 34.612 88.7723 14.7839 62.9116 14.7594C36.7979 14.7349 15.668 34.4448 15.6637 58.8292V58.8292Z" fill="#F8F8F8"/>
<path d="M73.2367 70.9895C73.2367 67.8283 73.2018 64.667 73.2585 61.5058C73.2759 60.4983 72.9794 59.8823 72.0507 59.2583C63.9449 53.7924 63.0293 41.8163 70.1539 35.2613C75.1116 30.701 82.2537 30.807 87.0413 35.5142C93.9741 42.3344 92.871 53.931 84.7172 59.3806C83.8714 59.9476 83.6839 60.5268 83.6882 61.3997C83.7187 67.8242 83.7231 74.2487 83.6926 80.6772C83.6795 83.5611 81.434 85.7148 78.5257 85.7434C75.552 85.7719 73.289 83.5897 73.241 80.6283C73.2236 79.6085 73.241 78.5888 73.241 77.569C73.241 75.3745 73.241 73.1841 73.241 70.9895H73.2367Z" fill="#F8F8F8"/>
<path d="M49.6869 46.5231H54.9192C54.9192 43.4271 54.9192 40.3883 54.9192 37.3494C54.9192 36.4316 54.8974 35.5138 54.928 34.596C54.9803 32.94 56.0529 31.8753 57.5877 31.9039C59.0659 31.9324 60.0949 32.9644 60.1428 34.543C60.1821 35.9707 60.1559 37.3983 60.1559 38.826C60.1559 43.5658 60.1559 48.3057 60.1559 53.0455C60.1559 57.9036 57.6444 60.6121 52.3074 61.3504C52.3074 61.8643 52.3074 62.4069 52.3074 62.9494C52.3074 68.709 52.3118 74.4685 52.3074 80.2281C52.3031 83.4914 50.2014 85.7144 47.1231 85.7389C43.9837 85.7634 41.8471 83.5199 41.8428 80.1629C41.8384 74.4563 41.8428 68.7457 41.8428 63.0391V61.4075C36.1178 60.3796 33.9943 57.9403 33.9899 52.5275C33.9899 46.8698 33.9899 41.2122 33.9899 35.5546C33.9899 35.1997 33.9769 34.8408 33.9943 34.4859C34.0859 32.9277 35.1323 31.9039 36.6192 31.912C38.1017 31.9202 39.1874 32.944 39.2048 34.5145C39.2441 37.9286 39.2179 41.3428 39.2223 44.761C39.2223 45.3117 39.2223 45.8623 39.2223 46.4986H44.4546C44.4546 46.0581 44.4546 45.5768 44.4546 45.0955C44.4546 41.7303 44.4459 38.3691 44.4546 35.0039C44.4589 33.0542 45.3964 31.9406 47.0184 31.912C48.6971 31.8835 49.6782 33.0297 49.6826 35.0651C49.6913 38.8301 49.6826 42.5991 49.6826 46.5272L49.6869 46.5231Z" fill="#F8F8F8"/>
</svg>
