<svg width="28" height="24" viewBox="0 0 28 24" fill="none" xmlns="http://www.w3.org/2000/svg">
<path d="M27.8374 2.84684C26.8376 3.32792 25.7636 3.65297 24.6346 3.79989C25.7995 3.0429 26.6711 1.85148 27.0867 0.447947C25.9921 1.15395 24.7942 1.6509 23.545 1.91719C22.7049 0.943152 21.5922 0.297546 20.3797 0.0806033C19.1671 -0.13634 17.9225 0.0875171 16.8391 0.71742C15.7557 1.34732 14.8941 2.34803 14.3881 3.56417C13.8821 4.78031 13.76 6.14385 14.0407 7.44309C11.8229 7.32216 9.65329 6.69618 7.67269 5.60576C5.69209 4.51535 3.94475 2.98487 2.54408 1.11366C2.06515 2.0108 1.78977 3.05097 1.78977 4.15875C1.78924 5.15601 2.01538 6.13799 2.44815 7.01757C2.88091 7.89715 3.50691 8.64713 4.27061 9.20098C3.38493 9.17037 2.51878 8.91049 1.74427 8.44295V8.52096C1.74418 9.91966 2.18971 11.2753 3.00526 12.3579C3.82082 13.4405 4.95616 14.1833 6.21864 14.4603C5.39702 14.7018 4.53562 14.7374 3.69949 14.5644C4.05569 15.7678 4.74953 16.8203 5.68388 17.5742C6.61823 18.3282 7.74632 18.7461 8.91021 18.7692C6.93444 20.4535 4.49437 21.3672 1.98254 21.3632C1.53759 21.3633 1.09302 21.3351 0.651123 21.2786C3.20078 23.0589 6.16876 24.0037 9.19996 24C19.461 24 25.0704 14.7711 25.0704 6.76698C25.0704 6.50694 25.0644 6.24429 25.0536 5.98425C26.1447 5.12738 27.0866 4.0663 27.835 2.85074L27.8374 2.84684Z" fill="#FFBD35"/>
</svg>
