<svg width="158" height="147" viewBox="0 0 158 147" fill="none" xmlns="http://www.w3.org/2000/svg">
<path d="M122.565 65.9623V146.973H0.0662842V65.7128C2.6036 65.6559 4.58522 66.5182 6.29424 67.8752C7.43184 68.7769 8.47507 69.7706 9.63888 70.6504C13.2247 73.3687 18.163 73.3687 21.7488 70.6504C22.9126 69.7662 23.9506 68.7725 25.0934 67.8752C28.8942 64.8899 34.0055 64.8986 37.7957 67.9015C38.839 68.7288 39.7983 69.6349 40.8416 70.4622C44.5794 73.4212 49.6383 73.4431 53.3918 70.5147C54.4927 69.6568 55.4888 68.7025 56.5845 67.8446C60.3275 64.9161 65.3759 64.9074 69.14 67.8227C70.1937 68.6412 71.153 69.5473 72.191 70.3834C76.0494 73.4781 81.1555 73.4694 85.0296 70.3703C85.9733 69.613 86.8592 68.8032 87.7976 68.0372C91.7609 64.8242 96.9508 64.8461 100.919 68.0853C101.905 68.8864 102.822 69.7487 103.829 70.5322C107.535 73.4125 112.495 73.4212 116.227 70.5585C117.286 69.7443 118.224 68.8207 119.304 68.024C120.206 67.3587 121.228 66.8028 122.57 65.9667L122.565 65.9623Z" fill="#F8F8F8"/>
<path d="M129.469 66.1072C130.99 67.2453 132.426 68.4753 134.057 69.4909C135.855 70.6071 137.695 71.9115 139.771 72.4368C142.654 73.1634 145.474 72.3799 147.713 70.5502C148.929 69.5521 150.088 68.506 151.351 67.5517C152.955 66.3436 154.837 65.6563 157.149 65.7132V147H129.066V66.4924C129.197 66.3655 129.333 66.2385 129.464 66.1072H129.469Z" fill="#F8F8F8"/>
<path d="M37.7225 61.4051C29.9376 59.2252 23.7463 60.8711 18.6297 65.8393C16.386 68.0192 15.2589 67.901 12.8055 65.9488C11.0178 64.5261 9.00997 63.2961 7.15416 61.9304C6.65614 61.5627 6.15287 61.0506 6.00608 60.534C2.29971 47.4109 -0.337206 34.1739 0.035003 20.6305C0.166063 15.8724 0.711271 11.1318 2.69289 6.60564C5.87502 -0.660688 11.6941 -2.01327 18.829 2.95059C24.1447 6.64503 28.0189 11.3638 31.1957 16.402C34.813 22.1407 37.9532 28.0938 41.2297 33.9813C41.5075 34.4759 41.4551 35.2814 41.1615 35.7891C38.7395 40.0132 37.6386 44.4474 37.7068 49.118C37.7645 53.1583 37.7173 57.2029 37.7173 61.4051H37.7225ZM15.0387 38.4068C15.4843 38.0522 16.7582 37.5138 17.1042 36.6996C19.652 30.7333 22.0425 24.7189 24.4173 18.7045C25.0097 17.2031 24.0976 15.8505 22.4672 15.4303C20.7844 14.9926 19.2117 15.6185 18.5144 17.0849C17.9849 18.2011 17.5813 19.3567 17.1199 20.4948C15.196 25.253 13.2353 30.0067 11.3638 34.778C10.5827 36.7696 12.0296 38.4724 15.044 38.4068H15.0387ZM31.9192 38.3192C31.8982 36.7346 31.049 35.8066 29.471 35.5309C27.7882 35.2332 26.4671 35.8548 25.9009 37.2161C23.4265 43.1912 20.9836 49.1706 18.593 55.1718C18.0059 56.6514 18.8971 58.004 20.5222 58.4811C22.3623 59.0239 23.9455 58.2841 24.7057 56.4369C27.028 50.7639 29.3137 45.0822 31.5994 39.4004C31.7619 38.9889 31.851 38.56 31.9192 38.3192V38.3192Z" fill="#F8F8F8"/>
<path d="M125.637 39.7431C128.017 39.4411 130.319 38.8939 132.615 38.9071C137.621 38.9421 141.301 41.1614 143.834 44.6195C148.059 50.38 148.73 56.714 146.953 63.1136C146.507 64.72 143.996 65.9982 142.235 67.2239C141.826 67.5084 140.484 67.1188 139.771 66.7555C138.958 66.344 138.345 65.648 137.695 65.0308C131.226 58.872 120.379 58.8501 113.884 65.0002C110.392 68.3094 109.732 68.2832 106.099 64.9258C102.592 61.6822 98.1304 60.0013 92.9615 60.5178C90.031 60.8111 87.2315 62.0017 84.2486 62.8247C83.9708 59.9575 84.3797 56.784 85.2918 53.6586C87.242 46.9657 90.8278 41.052 97.4385 36.6878C103.876 32.4418 111.236 32.3017 116.636 36.2894C117.553 36.9679 118.329 37.7777 119.325 38.6663C120.264 35.5759 121.747 32.8401 124.248 30.5552C128.148 27.0008 133.05 25.8014 138.649 26.3792C140.935 26.6156 142.156 27.8588 141.883 29.4215C141.621 30.9272 140.19 31.7064 137.931 31.5707C131.168 31.1592 126.812 34.0745 125.632 39.7388L125.637 39.7431Z" fill="#F8F8F8"/>
<path d="M62.8859 18.4638H81.7585C81.7585 20.4249 81.8738 22.3771 81.7166 24.3163C81.6012 25.717 82.0678 26.4262 83.7244 26.9514C87.4308 28.1333 90.6024 30.0506 93.2655 32.6157C80.8463 41.9393 76.5895 53.6267 78.4244 67.3715C77.9054 67.2095 77.3864 67.1657 77.0718 66.9293C76.1963 66.2728 75.3733 65.568 74.5922 64.8326C68.3013 58.9408 57.4443 58.9451 51.1535 64.8501C50.6292 65.3404 50.0945 65.8219 49.5703 66.3078C48.6214 67.1964 47.4366 67.7523 46.0946 67.1789C44.8049 66.6273 43.9294 65.8131 43.9609 64.338C44.0762 59.0327 43.9819 53.7274 44.0133 48.4177C44.0658 38.5557 50.6187 30.4139 61.5544 26.7019C62.5923 26.3517 62.9383 25.9534 62.9069 25.0429C62.8283 22.9112 62.8807 20.7794 62.8807 18.4551L62.8859 18.4638Z" fill="#F8F8F8"/>
<path d="M59.8296 13.0191V5.34131H84.7467V13.0191H59.8296Z" fill="#F8F8F8"/>
</svg>
