<svg width="30" height="29" viewBox="0 0 30 29" fill="none" xmlns="http://www.w3.org/2000/svg">
<path d="M29.1248 8.54309C29.1346 10.771 28.3916 12.7647 27.2967 14.6634C26.3749 16.2614 24.9984 17.4557 23.7557 18.767C21.4965 21.1506 19.2112 23.5088 16.9365 25.8776C16.352 26.487 15.7682 27.0972 15.1779 27.7009C14.7574 28.1309 14.4063 28.1367 13.9924 27.7067C11.2311 24.8423 8.47301 21.9746 5.71334 19.1078C4.84462 18.2043 3.93262 17.3385 3.11615 16.39C1.46035 14.4676 0.413634 12.2454 0.0845967 9.70784C-0.157079 7.84358 0.11399 6.05058 0.963119 4.37635C3.01981 0.324283 7.70798 -1.30736 11.5927 1.1745C12.6533 1.8519 13.5221 2.72178 14.2585 3.735C14.5606 4.15028 14.5639 4.14618 14.8635 3.74974C15.9413 2.32206 17.2231 1.14829 18.9124 0.482368C21.628 -0.58819 24.8351 0.211248 26.7922 2.38677C28.3753 4.14618 29.1199 6.19638 29.124 8.54391L29.1248 8.54309Z" fill="#FFBD35"/>
</svg>
