<svg width="161" height="147" viewBox="0 0 161 147" fill="none" xmlns="http://www.w3.org/2000/svg">
<g clip-path="url(#clip0_471_163)">
<path d="M69.4894 147C68.3953 146.457 67.204 146.019 66.2282 145.35C64.133 143.915 63.605 141.908 63.6092 139.7C63.6388 130.897 63.6092 122.093 63.6134 113.29C63.6134 92.6696 63.6176 72.0493 63.6134 51.4289C63.6134 50.8571 63.7106 50.2278 63.4613 49.7315C63.267 49.3467 62.5954 48.89 62.1603 48.908C61.7463 48.9224 61.2309 49.4582 61.0028 49.861C60.8043 50.2134 60.9352 50.7061 60.9352 51.134C60.9014 63.717 60.8719 76.2999 60.8254 88.8829C60.8127 92.2129 58.9371 94.3095 55.6084 94.8273C52.0685 95.3775 48.6553 93.2162 48.2666 90.1631C48.2117 89.7352 48.2202 89.3036 48.2202 88.8721C48.2202 76.1453 48.2033 63.4185 48.2202 50.6953C48.2286 44.2474 52.4402 39.4681 59.6341 37.7959C61.0746 37.4615 62.6292 37.3356 64.1288 37.3356C72.7843 37.3248 81.4356 37.3967 90.0912 37.3715C90.8769 37.3715 91.8485 37.0407 92.4145 36.5768C96.0178 33.6244 99.5493 30.6072 103.047 27.5648C103.6 27.083 104.052 26.4069 104.242 25.756C106.3 18.6608 108.281 11.5512 110.317 4.45235C111.111 1.71568 113.502 0.0290791 116.501 0.000309902C119.289 -0.0248632 121.858 1.48552 122.521 3.81223C122.825 4.8767 122.795 6.11018 122.504 7.18543C120.413 14.8632 118.267 22.5302 115.99 30.1685C115.61 31.4451 114.744 32.7757 113.667 33.7179C108.653 38.1088 103.507 42.3882 98.3538 46.6604C97.5132 47.3545 97.1837 48.0377 97.1837 49.0267C97.2133 79.2164 97.1922 109.403 97.2302 139.592C97.2302 142.275 96.398 144.497 93.6522 145.979C92.858 146.407 91.9414 146.662 91.0796 146.997H88.0424C83.3746 145.587 81.9425 142.645 81.9763 138.614C82.0988 122.636 82.027 106.655 82.027 90.6773C82.027 90.1235 82.027 89.5697 82.027 89.0123H78.8081C78.8081 89.7064 78.8081 90.3177 78.8081 90.9255C78.8081 107.097 78.7997 123.266 78.8166 139.438C78.8166 141.667 78.4026 143.775 76.2736 145.274C75.2682 145.983 74.0093 146.432 72.8646 147H69.4936H69.4894Z" fill="#F8F8F8"/>
<path d="M130.214 81.0001H126.919C126.919 81.6151 126.919 82.2084 126.919 82.8054C126.919 99.1211 126.923 115.44 126.919 131.756C126.919 135.478 125.001 137.866 121.372 138.751C117.161 139.779 112.721 137.445 111.969 133.784C111.817 133.036 111.753 132.263 111.753 131.501C111.741 101.976 111.753 72.4557 111.724 42.9312C111.724 41.9495 111.948 41.1763 112.869 40.5434C113.477 40.1262 113.975 39.594 114.554 39.1373C117.929 36.4618 121.114 33.6891 121.309 29.4061C121.976 29.3629 122.411 29.3126 122.851 29.3126C130.099 29.309 137.353 29.2694 144.601 29.3198C151.014 29.3665 156.108 31.5638 158.939 36.5912C159.944 38.3785 160.476 40.529 160.497 42.5213C160.633 55.3919 160.573 68.2625 160.561 81.1368C160.561 84.4956 158.001 86.8762 154.402 86.9625C150.752 87.0489 148.082 84.6862 147.943 81.2411C147.926 80.8095 147.939 80.3816 147.939 79.95C147.939 67.7483 147.939 55.5465 147.934 43.3448C147.934 42.8198 148.01 42.2444 147.782 41.7913C147.605 41.4388 146.997 41.0217 146.595 41.0325C146.202 41.0433 145.649 41.5036 145.493 41.8668C145.29 42.3343 145.404 42.9025 145.404 43.4275C145.404 72.8548 145.396 102.282 145.417 131.709C145.417 133.813 144.91 135.712 143.055 137.186C140.804 138.977 138.13 139.492 135.253 138.596C132.309 137.683 130.657 135.78 130.281 133.119C130.197 132.504 130.222 131.879 130.222 131.256C130.222 115.131 130.222 99.0061 130.222 82.8809C130.222 82.3091 130.222 81.7409 130.222 81.0037L130.214 81.0001Z" fill="#F8F8F8"/>
<path d="M59.7314 33.1937C58.1937 33.6468 56.7152 33.9669 55.3593 34.5063C47.35 37.7033 43.2398 43.1191 43.1934 50.6278C43.1131 63.4481 43.1849 76.272 43.1638 89.0959C43.1553 92.6561 44.769 95.4683 48.14 97.59C48.5835 97.8705 48.9595 98.4999 48.9595 98.9674C49.0017 110.115 49.0271 121.264 48.9722 132.412C48.9553 136.108 45.8884 138.831 41.8627 138.971C37.6215 139.118 34.428 136.734 33.9042 132.994C33.8197 132.379 33.8197 131.753 33.8197 131.131C33.8197 115.006 33.8197 98.8846 33.8197 82.7595C33.8197 82.1985 33.8197 81.6411 33.8197 81.0118H30.5923C30.5923 81.6411 30.5923 82.2416 30.5923 82.8422C30.5923 98.9674 30.5966 115.089 30.5797 131.214C30.5797 132.214 30.5374 133.239 30.2671 134.202C29.4053 137.284 25.9583 139.248 22.1185 138.949C18.6545 138.68 15.8032 136.213 15.4948 133.185C15.4188 132.422 15.4103 131.656 15.4103 130.89C15.4103 101.848 15.4103 72.8089 15.4061 43.7664C15.4061 43.2413 15.5624 42.6516 15.3385 42.2056C15.0935 41.7202 14.4894 41.3641 14.0374 40.9542C13.5812 41.3534 12.9856 41.6914 12.711 42.1661C12.4871 42.5545 12.6392 43.1047 12.6392 43.583C12.6392 55.8315 12.6434 68.08 12.6265 80.3285C12.6265 81.2779 12.6012 82.2632 12.3097 83.1694C11.5451 85.5429 8.73596 87.136 5.89725 86.9454C2.86422 86.744 0.40569 84.7518 0.0592997 82.1913C0.000159904 81.7669 0.00860845 81.3318 0.00860845 80.9003C0.00860845 68.1735 -0.00828864 55.4467 0.00860845 42.7199C0.017057 36.2216 4.2709 31.446 11.5789 29.7773C13.0236 29.4465 14.5739 29.335 16.0735 29.3278C26.7525 29.2919 37.4314 29.2883 48.1062 29.317C52.5163 29.3278 56.4956 30.3563 59.7272 33.1901L59.7314 33.1937Z" fill="#F8F8F8"/>
<path d="M67.3646 22.3977C67.5884 16.126 73.608 11.2461 80.8315 11.4834C88.0846 11.7172 93.6945 16.8201 93.4579 22.9623C93.2213 29.047 87.1215 33.9917 80.1683 33.7328C72.7843 33.4559 67.1449 28.468 67.3603 22.4013L67.3646 22.3977Z" fill="#F8F8F8"/>
<path d="M19.1571 14.4178C19.3345 8.23597 25.3795 3.2553 32.4382 3.46747C39.742 3.69044 45.4025 8.70347 45.2547 14.8205C45.1068 20.9016 39.1759 25.8571 32.1341 25.7816C24.8599 25.7061 18.9797 20.5528 19.1571 14.4178V14.4178Z" fill="#F8F8F8"/>
<path d="M128.042 3.56441C133.415 3.34145 138.438 5.97383 140.567 10.1202C142.743 14.3529 141.513 19.5889 137.623 22.6564C133.487 25.9217 127.903 26.6589 122.969 24.5695C124.338 17.5606 127.535 10.8502 128.042 3.56441V3.56441Z" fill="#F8F8F8"/>
<path d="M108.902 43.7983C108.957 44.5679 108.999 44.8844 108.999 45.2044C108.999 57.1616 109.012 69.1153 108.995 81.0725C108.991 84.701 106.41 86.9522 102.177 86.8983V85.3879C102.177 73.9089 102.156 62.4336 102.223 50.9547C102.228 50.2067 102.713 49.322 103.305 48.7466C104.961 47.1284 106.794 45.6396 108.902 43.7983V43.7983Z" fill="#F8F8F8"/>
</g>
<defs>
<clipPath id="clip0_471_163">
<rect width="160.582" height="147" fill="white"/>
</clipPath>
</defs>
</svg>
