<svg width="27" height="26" viewBox="0 0 27 26" fill="none" xmlns="http://www.w3.org/2000/svg">
<path d="M24.422 26L15.2961 17.0513C13.3381 18.4161 10.9285 19.0099 8.54494 18.715C6.1614 18.4201 3.97785 17.258 2.42705 15.4591C0.876249 13.6601 0.0713886 11.3556 0.171984 9.00231C0.272579 6.64899 1.27129 4.4186 2.97017 2.75318C4.6686 1.08705 6.94355 0.107363 9.34407 0.00831459C11.7446 -0.0907342 14.0955 0.698086 15.9307 2.21842C17.7659 3.73875 18.9515 5.8796 19.2525 8.21663C19.5534 10.5537 18.9478 12.9162 17.5556 14.8361L26.6815 23.7847L24.4236 25.9984L24.422 26ZM9.74393 3.13205C8.27494 3.13171 6.85073 3.62781 5.71126 4.53676C4.57179 5.44571 3.78672 6.71195 3.48831 8.12213C3.18989 9.53231 3.39639 11.0002 4.073 12.2786C4.74961 13.5569 5.85497 14.5675 7.20286 15.1402C8.55074 15.7128 10.0587 15.8124 11.4728 15.4223C12.8869 15.0321 14.1205 14.176 14.966 12.9982C15.8114 11.8204 16.2169 10.3929 16.1141 8.95624C16.0114 7.51956 15.4067 6.16151 14.4019 5.1109L15.368 6.05023L14.2789 4.98566L14.2598 4.96687C13.6683 4.38338 12.9645 3.92076 12.1894 3.6058C11.4142 3.29085 10.583 3.12982 9.74393 3.13205Z" fill="black"/>
</svg>
