<svg width="23" height="24" viewBox="0 0 23 24" fill="none" xmlns="http://www.w3.org/2000/svg">
<path d="M11.3858 7.9983C9.29455 7.9983 7.58795 9.79651 7.58795 12C7.58795 14.2035 9.29455 16.0017 11.3858 16.0017C13.477 16.0017 15.1836 14.2035 15.1836 12C15.1836 9.79651 13.477 7.9983 11.3858 7.9983ZM22.7764 12C22.7764 10.3429 22.7906 8.70077 22.7023 7.04665C22.614 5.12536 22.198 3.4202 20.8647 2.01525C19.5284 0.607302 17.913 0.172009 16.0896 0.0789456C14.5169 -0.0141172 12.9585 0.000892936 11.3886 0.000892936C9.81593 0.000892936 8.25748 -0.0141172 6.68764 0.0789456C4.86423 0.172009 3.24595 0.610305 1.91258 2.01525C0.576362 3.42321 0.163245 5.12536 0.0749235 7.04665C-0.013398 8.70377 0.000847442 10.3459 0.000847442 12C0.000847442 13.6541 -0.013398 15.2992 0.0749235 16.9533C0.163245 18.8746 0.579211 20.5798 1.91258 21.9847C3.2488 23.3927 4.86423 23.828 6.68764 23.9211C8.26033 24.0141 9.81878 23.9991 11.3886 23.9991C12.9613 23.9991 14.5198 24.0141 16.0896 23.9211C17.913 23.828 19.5313 23.3897 20.8647 21.9847C22.2009 20.5768 22.614 18.8746 22.7023 16.9533C22.7935 15.2992 22.7764 13.6571 22.7764 12ZM11.3858 18.1572C8.15207 18.1572 5.54231 15.4073 5.54231 12C5.54231 8.5927 8.15207 5.84284 11.3858 5.84284C14.6195 5.84284 17.2292 8.5927 17.2292 12C17.2292 15.4073 14.6195 18.1572 11.3858 18.1572ZM17.4686 7.02864C16.7136 7.02864 16.1038 6.38621 16.1038 5.59067C16.1038 4.79513 16.7136 4.1527 17.4686 4.1527C18.2236 4.1527 18.8333 4.79513 18.8333 5.59067C18.8335 5.77957 18.7983 5.96667 18.7298 6.14124C18.6613 6.31581 18.5608 6.47442 18.4341 6.608C18.3073 6.74157 18.1568 6.84748 17.9911 6.91967C17.8254 6.99185 17.6478 7.02888 17.4686 7.02864Z" fill="#FFBD35"/>
</svg>
