<svg width="33" height="24" viewBox="0 0 33 24" fill="none" xmlns="http://www.w3.org/2000/svg">
<path d="M31.9838 3.7656C31.8034 3.0389 31.4518 2.38098 30.9666 1.86178C30.4677 1.32662 29.8563 0.943806 29.1899 0.749473C26.6962 0.00743355 16.7052 0.00743372 16.7052 0.00743372C12.54 -0.0460641 8.37592 0.189233 4.23634 0.711996C3.56999 0.920686 2.95966 1.31205 2.45963 1.85129C1.96831 2.38496 1.61244 3.04305 1.42654 3.7641C0.97996 6.48003 0.762983 9.23772 0.77853 12C0.762595 14.7598 0.97904 17.5166 1.42654 20.2359C1.60846 20.9539 1.963 21.609 2.45565 22.1382C2.94829 22.6674 3.56177 23.0496 4.23634 23.252C6.7633 23.9925 16.7052 23.9925 16.7052 23.9925C20.8756 24.0461 25.045 23.8108 29.1899 23.288C29.8563 23.0937 30.4677 22.7108 30.9666 22.1757C31.4517 21.6566 31.8028 20.9986 31.9825 20.2719C32.4407 17.557 32.6635 14.7981 32.6477 12.0345C32.6822 9.2591 32.4597 6.48726 31.9838 3.7641V3.7656ZM13.5289 17.1328V6.86868L21.8414 12.0015L13.5289 17.1328Z" fill="#F8F8F8"/>
</svg>
