<svg width="29" height="29" viewBox="0 0 29 29" fill="none" xmlns="http://www.w3.org/2000/svg">
<g clip-path="url(#clip0_619_90)">
<path d="M28.1718 21.8469V24.2021C28.0793 24.2578 28.0577 24.3575 28.0324 24.4508C27.8892 24.9768 27.6661 25.4652 27.3455 25.8991C26.2568 27.3747 24.8121 28.1494 22.996 28.0121C20.3701 27.8126 18.4463 25.4703 18.4818 23.018C18.4856 22.7861 18.3931 22.6618 18.1954 22.5672C17.5972 22.2783 17.0041 21.9777 16.4097 21.6785C14.0436 20.4866 11.6724 19.3039 9.31644 18.0913C8.9109 17.8827 8.62448 17.8802 8.23034 18.1418C5.32943 20.076 1.79611 18.4022 0.983753 15.3617C0.960941 15.2762 0.943198 15.1895 0.864624 15.1337V12.7786C0.976149 12.7086 0.98502 12.583 1.01797 12.4728C1.10161 12.1904 1.20427 11.9158 1.35381 11.6619C2.62875 9.49195 4.36879 8.83903 6.58281 9.13569C7.31026 9.23285 7.92872 9.57615 8.50789 10.0101C8.66123 10.1254 8.78416 10.1449 8.97553 10.0542C9.79549 9.66813 10.5964 9.24581 11.405 8.83773C13.652 7.70549 15.899 6.57454 18.1485 5.45007C18.3842 5.33218 18.5097 5.18838 18.483 4.90726C18.4666 4.73367 18.4767 4.5523 18.5071 4.38C18.8822 2.25413 20.0178 0.796717 22.0797 0.161934C22.1976 0.125661 22.3294 0.116593 22.408 0H24.1936C24.2659 0.114002 24.3913 0.111411 24.5003 0.138616C26.2974 0.601101 27.4646 1.74241 28.021 3.54572C28.0577 3.6636 28.0526 3.80352 28.1692 3.88643V6.12371C28.0716 6.18978 28.0526 6.2999 28.0235 6.40224C27.1186 9.55154 23.2495 11.031 20.616 9.0191C20.3752 8.83514 20.1762 8.82996 19.9075 8.9634C16.8672 10.4687 13.8484 12.0194 10.8258 13.5623C10.6269 13.6634 10.5496 13.7865 10.5445 14.0145C10.5381 14.293 10.7054 14.3837 10.9006 14.4834C13.8814 16.0017 16.8647 17.5161 19.8378 19.05C20.1508 19.2119 20.3511 19.1821 20.6324 18.9787C22.1266 17.897 23.7551 17.8076 25.3912 18.5292C26.6713 19.094 27.5305 20.1278 27.9817 21.4932C28.0235 21.6202 28.0349 21.7679 28.168 21.8456L28.1718 21.8469Z" fill="#FFBD35"/>
</g>
<defs>
<clipPath id="clip0_619_90">
<rect width="27.3046" height="28.0263" fill="white" transform="translate(0.867065)"/>
</clipPath>
</defs>
</svg>
