<svg width="478" height="65" viewBox="0 0 478 65" fill="none" xmlns="http://www.w3.org/2000/svg">
<path d="M402.516 18.4664C402.616 14.1108 403.822 10.3469 406.675 7.57727C410.653 3.71872 416.219 3.9081 420.218 7.95602C421.443 9.21064 422.468 10.6783 423.332 12.3117C423.453 12.5247 423.553 12.7614 423.674 12.9745C424.397 14.3001 425.603 14.3001 426.306 12.9508C427.23 11.1044 428.295 9.40002 429.681 8.05071C432.957 4.85498 436.593 3.81341 440.552 5.6835C444.51 7.55359 446.64 11.2701 447.323 16.3123C447.906 20.6679 446.74 24.4791 444.852 28.0773C442.641 32.2909 439.768 35.7944 436.694 39.0611C433.66 42.2568 430.425 45.1448 427.069 47.7961C425.663 48.9087 424.297 48.9087 422.89 47.7961C417.766 43.7008 412.884 39.2031 408.725 33.6875C406.555 30.8232 404.626 27.7222 403.42 24.053C402.837 22.2776 402.496 20.4075 402.516 18.4664Z" fill="#FFBD35" stroke="#FFBD35" stroke-width="4" stroke-miterlimit="10"/>
<path d="M50.2275 48.5765C69.0144 63.845 421.544 57.8559 428.817 46.375" stroke="#FFBD35" stroke-width="4" stroke-linecap="round" stroke-linejoin="round"/>
<path d="M5.01855 50.5176C26.5782 68.0586 54.4872 52.0799 55.4717 50.5176" stroke="#FFBD35" stroke-width="4" stroke-linecap="round" stroke-linejoin="round"/>
<path d="M472.981 47.3223C451.422 64.8633 423.513 48.8846 422.528 47.3223" stroke="#FFBD35" stroke-width="4" stroke-linecap="round" stroke-linejoin="round"/>
<path d="M31.722 20.691C31.8224 16.3354 33.028 12.5715 35.8812 9.80188C39.8596 5.94333 45.4253 6.13271 49.4238 10.1806C50.6495 11.4352 51.6742 12.9029 52.5382 14.5363C52.6587 14.7493 52.7592 14.9861 52.8798 15.1991C53.6031 16.5247 54.8087 16.5247 55.5119 15.1754C56.4362 13.329 57.5011 11.6246 58.8875 10.2753C62.1627 7.07959 65.7995 6.03802 69.7578 7.90811C73.7161 9.7782 75.8459 13.4947 76.5291 18.5369C77.1118 22.8925 75.9464 26.7037 74.0576 30.3019C71.8474 34.5155 68.9741 38.019 65.8999 41.2857C62.8659 44.4814 59.631 47.3694 56.2755 50.0207C54.869 51.1333 53.5026 51.1333 52.0961 50.0207C46.9725 45.9254 42.0899 41.4277 37.9307 35.9122C35.7606 33.0478 33.8317 29.9468 32.6261 26.2776C32.0435 24.5022 31.7019 22.6321 31.722 20.691Z" fill="#FFBD35" stroke="#FFBD35" stroke-width="4" stroke-miterlimit="10"/>
</svg>
