<svg width="17" height="24" viewBox="0 0 17 24" fill="none" xmlns="http://www.w3.org/2000/svg">
<path d="M9.24657 0.00164495C9.53291 0.0756676 9.82912 0.0921171 10.1171 0.161205C10.5565 0.266482 10.986 0.398078 11.4056 0.565862C11.9767 0.79451 12.5115 1.08567 13.0167 1.43275C13.6108 1.84399 14.144 2.32102 14.6146 2.87044C15.0326 3.35899 15.3864 3.88866 15.6859 4.45452C16.0216 5.09112 16.2536 5.76554 16.4133 6.46465C16.4988 6.84299 16.5449 7.22626 16.5795 7.61118C16.614 7.98623 16.6124 8.36292 16.5926 8.73632C16.5729 9.12453 16.5235 9.51274 16.4429 9.89766C16.3425 10.373 16.2109 10.8353 16.0381 11.286C15.8077 11.8897 15.4818 12.444 15.1642 13.0033C14.8466 13.5626 14.529 14.1219 14.2098 14.6795C13.8428 15.3211 13.4725 15.9609 13.1056 16.6008C12.7402 17.2374 12.3766 17.8757 12.0096 18.5123C11.6492 19.139 11.2839 19.7641 10.9251 20.3908C10.619 20.9237 10.3179 21.46 10.0118 21.993C9.80938 22.3466 9.60203 22.697 9.39632 23.049C9.2943 23.225 9.20214 23.4076 9.08859 23.5754C8.8615 23.9143 8.44351 24.0722 8.06995 23.9685C7.77703 23.8863 7.57626 23.6938 7.42651 23.4306C7.0727 22.8056 6.70902 22.1854 6.35027 21.562C6.0409 21.0224 5.73481 20.4796 5.42379 19.9384C5.01567 19.2278 4.60427 18.5205 4.19615 17.8115C3.85221 17.2127 3.51322 16.6107 3.16928 16.0119C2.82535 15.4132 2.47647 14.8161 2.13583 14.2156C1.7129 13.4688 1.26694 12.7335 0.876925 11.9686C0.500077 11.2301 0.253233 10.4504 0.116646 9.63282C0.0277827 9.09492 -0.0150036 8.55538 0.00474392 8.01254C0.0277827 7.34963 0.116647 6.69494 0.297665 6.05341C0.537926 5.19639 0.901609 4.39695 1.3953 3.65672C1.73759 3.1435 2.1276 2.66811 2.5785 2.24535C2.8994 1.94433 3.24169 1.67127 3.60373 1.42124C4.06615 1.10376 4.55161 0.829054 5.06998 0.613566C5.7019 0.350374 6.35356 0.151335 7.0365 0.062508C7.15005 0.0477035 7.26359 0.0213843 7.37714 0H9.24986L9.24657 0.00164495ZM4.64047 8.94852C4.60262 10.9471 6.25154 12.5477 8.13248 12.62C10.3458 12.7056 11.9289 10.9438 11.9783 9.06367C12.0343 6.92523 10.3064 5.31647 8.38262 5.27535C6.27128 5.23094 4.57794 6.99926 4.63882 8.94852H4.64047Z" fill="white"/>
</svg>
