<svg width="27" height="22" viewBox="0 0 27 22" fill="none" xmlns="http://www.w3.org/2000/svg">
<path d="M23.1414 16.4795C23.1414 17.7557 23.1414 19.0297 23.1414 20.306C23.1414 21.029 22.6829 21.5051 21.9621 21.5073C19.9475 21.5139 17.9306 21.5073 15.916 21.5161C15.6272 21.5161 15.5788 21.3882 15.5788 21.1436C15.5832 19.2634 15.581 17.3854 15.581 15.5052C15.581 15.2275 15.4421 15.0886 15.1644 15.0886C14.0446 15.0886 12.9249 15.0886 11.8052 15.0886C11.5333 15.0886 11.3974 15.2289 11.3974 15.5096C11.3974 17.3788 11.3974 19.248 11.3974 21.1193C11.3974 21.5051 11.3908 21.5095 11.005 21.5117C9.04769 21.5117 7.09035 21.5117 5.13302 21.5117C4.2866 21.5117 3.83253 21.0576 3.83253 20.209C3.83033 17.6764 3.83253 15.1459 3.82812 12.6133C3.82812 12.3774 3.90307 12.2165 4.08822 12.0644C7.13444 9.56046 10.1784 7.05428 13.2158 4.53928C13.4319 4.36074 13.5663 4.36294 13.7845 4.54369C16.8153 7.05207 19.8527 9.55165 22.8901 12.0468C23.0709 12.1945 23.1524 12.3532 23.1524 12.5912C23.1414 13.8873 23.148 15.1812 23.148 16.4773L23.1414 16.4795Z" fill="white"/>
<path d="M18.7859 3.77448C18.7859 3.44164 18.7859 3.18155 18.7859 2.92365C18.7859 2.2139 18.7836 1.50194 18.7859 0.792186C18.7881 0.258767 18.9997 0.0471636 19.5309 0.0449594C20.4853 0.0405509 21.4397 0.0405509 22.3941 0.0449594C22.954 0.0449594 23.1392 0.241134 23.1392 0.807615C23.1392 2.90161 23.1436 4.99341 23.1348 7.0874C23.1348 7.32546 23.2097 7.48416 23.3926 7.63184C24.4925 8.53336 25.5836 9.4437 26.6747 10.354C27.0649 10.6781 27.0913 10.969 26.7739 11.3525C26.4896 11.6986 26.2052 12.0447 25.9121 12.3841C25.5814 12.7654 25.2883 12.7853 24.9069 12.4701C21.1686 9.35333 17.4303 6.23658 13.6963 3.11322C13.5288 2.97435 13.434 2.98758 13.2819 3.11322C10.6678 5.29979 8.05136 7.47975 5.43497 9.66412C4.32845 10.5877 3.22415 11.5135 2.11763 12.4348C1.66798 12.8073 1.38804 12.7721 1.00892 12.3158C0.742209 11.994 0.468888 11.6766 0.204383 11.3525C-0.0953895 10.9822 -0.0667347 10.6714 0.299164 10.3673C3.42473 7.75969 6.5503 5.15431 9.67586 2.54894C10.4539 1.9009 11.2342 1.25507 12.0101 0.604828C12.9601 -0.193095 13.9939 -0.204116 14.9461 0.587194C16.121 1.56366 17.2914 2.54673 18.4662 3.52761C18.5478 3.59594 18.6338 3.65986 18.7859 3.77889V3.77448Z" fill="white"/>
</svg>
